<svg width="48" height="48" viewBox="0 0 48 48" fill="none" xmlns="http://www.w3.org/2000/svg">
<path fill-rule="evenodd" clip-rule="evenodd" d="M40.8694 3.41896L15.566 1.19995C8.16955 5.07082 4.7998 21.6335 4.7998 31.8722V32.3072L27.3865 39.238C27.819 28.9376 33.3071 9.63472 40.8694 3.41896ZM19.3708 21.8905C18.9642 21.7938 18.713 21.3857 18.8097 20.9791C18.9065 20.5725 19.3146 20.3214 19.7212 20.4181L20.1616 20.5236C20.5682 20.6203 20.8194 21.0284 20.7227 21.435C20.626 21.8416 20.2178 22.0928 19.8112 21.9961L19.3708 21.8905ZM17.2846 21.3009C16.878 21.2042 16.6268 20.7961 16.7235 20.3895C16.8203 19.9829 17.2283 19.7317 17.635 19.8284L18.0754 19.934C18.482 20.0307 18.7332 20.4387 18.6365 20.8453C18.5398 21.2519 18.1316 21.5031 17.725 21.4064L17.2846 21.3009ZM15.1984 20.7114C14.7918 20.6147 14.5406 20.2066 14.6373 19.8C14.7341 19.3934 15.1421 19.1422 15.5488 19.2389L15.9892 19.3445C16.3958 19.4412 16.647 19.8493 16.5503 20.2559C16.4536 20.6625 16.0454 20.9137 15.6388 20.817L15.1984 20.7114ZM20.6024 20.0604C20.1958 19.9637 19.9446 19.5556 20.0413 19.149C20.138 18.7424 20.5462 18.4912 20.9528 18.5879L21.3932 18.6934C21.7998 18.7902 22.051 19.1983 21.9542 19.6049C21.8575 20.0115 21.4494 20.2627 21.0428 20.1659L20.6024 20.0604ZM18.5162 19.4708C18.1096 19.3741 17.8584 18.966 17.9551 18.5594C18.0518 18.1528 18.46 17.9016 18.8666 17.9983L19.307 18.1039C19.7136 18.2006 19.9648 18.6087 19.868 19.0153C19.7713 19.4219 19.3632 19.6731 18.9566 19.5764L18.5162 19.4708ZM16.43 18.8814C16.0234 18.7846 15.7722 18.3765 15.8689 17.9699C15.9656 17.5633 16.3737 17.3121 16.7803 17.4089L17.2207 17.5144C17.6273 17.6111 17.8785 18.0191 17.7817 18.4257C17.685 18.8323 17.2769 19.0835 16.8703 18.9868L16.43 18.8814ZM43.2636 3.62891V32.1859L28.8948 39.6179C29.3248 27.4718 36.1058 7.37486 43.2636 3.62891ZM43.2636 33.8971V39.3921L28.8728 46.8V41.284L43.2636 33.8971ZM27.3528 40.8175V46.3322L4.7998 39.3921V33.8971L27.3528 40.8175ZM17.4266 15.0137V4.58822L29.1698 6.05987C27.2201 9.73247 25.9517 13.2398 24.8464 16.5559L17.4266 15.0137ZM24.3726 18.006C23.7762 19.8755 23.2296 21.7691 22.7355 23.6758L11.2535 20.7983L16.8571 16.4438L24.3726 18.006ZM10.5483 19.4226C11.4614 15.0758 13.2323 8.61898 15.9067 5.30557V15.2587L10.5483 19.4226ZM16.5138 28.6489L11.5583 27.4069C11.4558 27.3813 11.3768 27.3221 11.3231 27.231C11.2695 27.1399 11.2562 27.0421 11.2836 26.94L11.7419 25.2293C11.7955 25.0292 12.0004 24.9086 12.2014 24.959L17.1568 26.2009C17.2594 26.2266 17.3384 26.2857 17.3921 26.3769C17.4456 26.468 17.4589 26.5657 17.4316 26.6678L16.9731 28.3786C16.9196 28.5787 16.7147 28.6992 16.5138 28.6489ZM31.0874 16.7078L27.1879 15.7306C27.0854 15.7049 27.0063 15.6457 26.9528 15.5546C26.8992 15.4635 26.8859 15.3658 26.9132 15.2637L27.2501 14.0064C27.3037 13.8064 27.5086 13.6858 27.7095 13.7362L31.609 14.7134C31.7115 14.7391 31.7905 14.7983 31.8441 14.8894C31.8977 14.9805 31.911 15.0782 31.8836 15.1803L31.5468 16.4376C31.4931 16.6376 31.2883 16.7582 31.0874 16.7078Z" fill="#517AE1"/>
</svg>
