<?xml version="1.0" standalone="no"?>
<!DOCTYPE svg PUBLIC "-//W3C//DTD SVG 1.1//EN" "http://www.w3.org/Graphics/SVG/1.1/DTD/svg11.dtd" >
<svg xmlns="http://www.w3.org/2000/svg">
<metadata>Generated by IcoMoon</metadata>
<defs>
<font id="icomoon" horiz-adv-x="1024">
<font-face units-per-em="1024" ascent="960" descent="-64" />
<missing-glyph horiz-adv-x="1024" />
<glyph unicode="&#x20;" horiz-adv-x="512" d="" />
<glyph unicode="&#xe900;" glyph-name="bell" d="M725.332 618.584c0 56.579-22.494 110.825-62.498 150.833-40.009 40.008-94.255 62.5-150.835 62.5s-110.825-22.492-150.833-62.5c-40.008-40.008-62.5-94.254-62.5-150.833 0-155.61-33.406-258.773-69.208-324.416-3.254-5.965-6.58-11.588-9.833-16.917h584.748c-3.251 5.329-6.579 10.953-9.83 16.917-35.802 65.643-69.21 168.806-69.21 324.416zM810.666 618.584c0-143.049 30.596-231.893 58.79-283.584 14.157-25.946 27.925-42.978 37.5-53.082 4.8-5.065 8.606-8.401 10.876-10.291 1.135-0.947 1.882-1.549 2.21-1.792-0.047 0.030-0.107 0.085-0.166 0.124l-0.166 0.085c15.607-10.441 22.566-29.858 17.122-47.834-5.449-17.993-22.033-30.293-40.832-30.293h-768c-18.798 0-35.381 12.301-40.833 30.293-5.443 17.975 1.515 37.393 17.125 47.834l-0.167-0.085c-0.059-0.038-0.122-0.094-0.166-0.124 0.328 0.243 1.075 0.845 2.208 1.792 2.271 1.89 6.076 5.227 10.875 10.291 9.574 10.103 23.347 27.136 37.5 53.082 28.195 51.691 58.792 140.535 58.792 283.584 0 79.212 31.447 155.197 87.459 211.209s131.997 87.458 211.208 87.458c79.211 0 155.196-31.447 211.209-87.458s87.458-131.997 87.458-211.209zM548.897 85.331c11.823 20.382 37.948 27.324 58.33 15.501 20.386-11.823 27.324-37.952 15.501-58.334-11.247-19.392-27.409-35.473-46.831-46.665-19.426-11.191-41.459-17.084-63.876-17.084-22.426 0-44.484 5.888-63.919 17.084-16.99 9.788-31.482 23.322-42.373 39.539l-4.458 7.125-2 3.874c-8.912 19.708-1.611 43.371 17.5 54.46 19.107 11.085 43.274 5.679 55.959-11.831l2.377-3.669 3.081-4.625c3.401-4.416 7.637-8.158 12.501-10.957 6.477-3.733 13.858-5.666 21.333-5.666 7.467 0 14.818 1.937 21.291 5.666 6.477 3.729 11.836 9.118 15.586 15.582z" />
<glyph unicode="&#xe901;" glyph-name="box" d="M512 917.245c22.396 0 44.378-5.918 63.791-17.083l0.043 0.042 298.833-170.792 7.125-4.416c16.269-10.874 29.879-25.369 39.71-42.375 11.226-19.429 17.143-41.477 17.165-63.917v-341.417c-0.021-22.443-5.939-44.489-17.165-63.915-11.234-19.435-27.396-35.571-46.835-46.793l-0.166-0.128-298.709-170.624c-19.413-11.162-41.395-17.084-63.791-17.084-22.409 0-44.412 5.909-63.834 17.084v-0.043l-298.833 170.795c-19.437 11.221-35.601 27.358-46.833 46.793-11.228 19.426-17.143 41.472-17.167 63.915v341.417l0.292 8.417c1.305 19.51 7.055 38.505 16.875 55.5 11.232 19.431 27.398 35.569 46.833 46.792l0.167 0.125 298.666 170.625c19.422 11.177 41.425 17.083 63.834 17.083zM512 831.911c-7.488 0-14.848-1.965-21.333-5.708l-0.166-0.084-298.5-170.583c-6.48-3.741-11.881-9.147-15.625-15.625-3.736-6.472-5.701-13.818-5.708-21.292v-341.248l0.375-5.585c0.735-5.517 2.533-10.859 5.333-15.71 3.711-6.417 9.055-11.763 15.458-15.501l298.833-170.79c6.485-3.742 13.845-5.709 21.333-5.709s14.848 1.967 21.333 5.709l0.166 0.124 298.667 170.667c6.404 3.738 11.746 9.084 15.458 15.501 3.729 6.46 5.692 13.79 5.709 21.252v341.291l-0.375 5.583c-0.734 5.516-2.534 10.858-5.333 15.708-3.742 6.478-9.143 11.884-15.625 15.625v0.041l-298.667 170.625c-6.485 3.743-13.845 5.708-21.333 5.708zM863.1 699.954c20.39 11.796 46.485 4.844 58.291-15.542 11.797-20.393 4.843-46.489-15.543-58.292l-372.497-215.501c-13.21-7.633-29.5-7.633-42.709 0l-376.167 217.876c-17.517 12.667-22.933 36.8-11.875 55.917 11.063 19.107 34.665 26.412 54.375 17.542l3.916-2 351.084-203.084 351.125 203.084zM469.333 17.916v430.084c0 23.565 19.102 42.667 42.667 42.667s42.667-19.102 42.667-42.667v-430.084c0-23.561-19.102-42.667-42.667-42.667s-42.667 19.106-42.667 42.667z" />
<glyph unicode="&#xe902;" glyph-name="check" d="M815.576 720.416c20.828 20.828 54.67 20.828 75.5 0s20.83-54.672 0-75.5l-469.332-469.333c-20.828-20.827-54.672-20.827-75.5 0l-213.333 213.333-6.833 8.417c-13.65 20.698-11.384 48.866 6.833 67.083s46.385 20.483 67.084 6.833l8.416-6.833 175.584-175.584 431.583 431.584z" />
<glyph unicode="&#xe903;" glyph-name="chevron-down" d="M737.87 606.126c16.621 16.621 43.629 16.621 60.25 0s16.621-43.629 0-60.25l-255.997-256.003c-16.621-16.621-43.629-16.621-60.25 0l-256 256.003-5.437 6.687c-10.913 16.52-9.108 39.018 5.437 53.562s37.042 16.35 53.562 5.437l6.687-5.437 225.875-225.875 225.873 225.875z" />
<glyph unicode="&#xe904;" glyph-name="chevrons-left" d="M439.167 691.497c16.661 16.662 43.669 16.662 60.335 0 16.661-16.663 16.661-43.671 0-60.334l-183.168-183.165 183.168-183.168 2.914-3.251c13.67-16.755 12.706-41.459-2.914-57.084-15.625-15.62-40.329-16.585-57.084-2.914l-3.251 2.914-213.334 213.333c-16.662 16.666-16.662 43.674 0 60.335l213.334 213.334zM737.833 691.497c16.661 16.662 43.669 16.662 60.335 0 16.661-16.663 16.661-43.671 0-60.334l-183.168-183.165 183.168-183.168 2.914-3.251c13.67-16.755 12.706-41.459-2.914-57.084-15.625-15.62-40.329-16.585-57.084-2.914l-3.251 2.914-213.333 213.333c-16.661 16.666-16.661 43.674 0 60.335l213.333 213.334z" />
<glyph unicode="&#xe905;" glyph-name="chevron-up" d="M286.168 289.833c-16.663-16.661-43.671-16.661-60.334 0s-16.662 43.674 0 60.335l255.998 255.999c16.666 16.662 43.674 16.662 60.335 0l256-255.999c16.661-16.661 16.661-43.674 0-60.335s-43.669-16.661-60.335 0l-225.83 225.835-225.834-225.835z" />
<glyph unicode="&#xe906;" glyph-name="chevrons-right" d="M524.497 691.501c16.661 16.662 43.669 16.662 60.335 0l213.333-213.334c16.661-16.661 16.661-43.669 0-60.335l-213.333-213.333c-16.666-16.661-43.674-16.661-60.335 0-16.661 16.666-16.661 43.674 0 60.335l183.168 183.168-183.168 183.165c-16.661 16.663-16.661 43.671 0 60.334zM225.836 691.501c16.662 16.662 43.671 16.662 60.333 0l213.334-213.334c16.661-16.661 16.661-43.669 0-60.335l-213.334-213.333c-16.663-16.661-43.671-16.661-60.333 0-16.663 16.666-16.663 43.674 0 60.335l183.166 183.168-183.166 183.165c-16.663 16.663-16.663 43.671 0 60.334z" />
<glyph unicode="&#xe907;" glyph-name="clipboard" d="M128 106.666v597.333c0 33.948 13.495 66.495 37.5 90.5s56.552 37.5 90.5 37.5h85.333l4.375-0.208c21.51-2.19 38.292-20.371 38.292-42.458s-16.782-40.268-38.292-42.458l-4.375-0.208h-85.333c-11.316 0-22.165-4.498-30.167-12.5s-12.5-18.851-12.5-30.167v-597.333c0-11.315 4.498-22.165 12.5-30.165 8.002-8.004 18.851-12.501 30.167-12.501h512c11.315 0 22.165 4.497 30.165 12.501 8.004 8 12.501 18.85 12.501 30.165v597.333c0 11.316-4.497 22.165-12.501 30.167-8 8.002-18.85 12.5-30.165 12.5h-85.333c-23.565 0-42.667 19.103-42.667 42.667s19.102 42.667 42.667 42.667h85.333c33.946 0 66.496-13.495 90.5-37.5s37.5-56.552 37.5-90.5v-597.333c0-33.946-13.495-66.496-37.5-90.5s-56.555-37.5-90.5-37.5h-512c-33.948 0-66.496 13.495-90.5 37.5s-37.5 56.555-37.5 90.5zM384 831.999v-85.333h256v85.333h-256zM725.333 746.666c0-47.128-38.204-85.333-85.333-85.333h-256c-47.128 0-85.333 38.205-85.333 85.333v85.333c0 47.128 38.205 85.333 85.333 85.333h256l8.708-0.458c43.038-4.364 76.625-40.687 76.625-84.875v-85.333z" />
<glyph unicode="&#xe908;" glyph-name="dollar-sign" d="M469.249-21.328v938.652c0 23.611 19.139 42.75 42.75 42.75 23.613 0 42.752-19.139 42.752-42.75v-938.652c0-23.608-19.139-42.747-42.752-42.747-23.611 0-42.75 19.139-42.75 42.747zM725.247 298.652c0 28.257-11.223 55.363-31.196 75.346-19.988 19.988-47.135 31.252-75.402 31.252h-213.3c-50.944 0-99.827 20.224-135.85 56.249-36.014 36.018-56.245 84.866-56.25 135.8 0 50.944 20.227 99.827 56.25 135.85s84.906 56.25 135.85 56.25l324.353-0.2c21.56-2.187 38.4-20.412 38.4-42.55s-16.84-40.364-38.4-42.55l-4.352-0.2h-320.001c-28.267 0-55.412-11.212-75.4-31.2s-31.2-47.133-31.2-75.4c0.005-28.257 11.222-55.367 31.2-75.35 19.987-19.988 47.133-31.2 75.4-31.2h213.3c50.944 0 99.83-20.277 135.849-56.3 36.014-36.019 56.253-84.864 56.253-135.798 0-50.939-20.239-99.779-56.253-135.803-36.019-36.024-84.905-56.3-135.849-56.3h-362.65c-23.606 0-42.741 19.149-42.75 42.752 0 23.608 19.139 42.747 42.75 42.747h362.65c28.268 0 55.414 11.264 75.402 31.252 19.973 19.983 31.196 47.089 31.196 75.351z" />
<glyph unicode="&#xe909;" glyph-name="grid" d="M426.667 874.668c23.565 0 42.667-19.103 42.667-42.667v-298.667c0-23.565-19.102-42.667-42.667-42.667h-298.667c-23.564 0-42.667 19.102-42.667 42.667v298.667c0 23.564 19.103 42.667 42.667 42.667h298.667zM170.667 576.001h213.333v213.333h-213.333v-213.333zM896 874.668c23.565 0 42.667-19.103 42.667-42.667v-298.667c0-23.565-19.102-42.667-42.667-42.667h-298.667c-23.565 0-42.667 19.102-42.667 42.667v298.667c0 23.564 19.102 42.667 42.667 42.667h298.667zM640 576.001h213.333v213.333h-213.333v-213.333zM896 405.334c23.565 0 42.667-19.102 42.667-42.667v-298.667c0-23.565-19.102-42.667-42.667-42.667h-298.667c-23.565 0-42.667 19.102-42.667 42.667v298.667c0 23.565 19.102 42.667 42.667 42.667h298.667zM640 106.668h213.333v213.333h-213.333v-213.333zM426.667 405.334c23.565 0 42.667-19.102 42.667-42.667v-298.667c0-23.565-19.102-42.667-42.667-42.667h-298.667c-23.564 0-42.667 19.102-42.667 42.667v298.667c0 23.565 19.103 42.667 42.667 42.667h298.667zM170.667 106.668h213.333v213.333h-213.333v-213.333z" />
<glyph unicode="&#xe90a;" glyph-name="trending-up" d="M951.126 734.255c16.696 16.676 43.761 16.682 60.452 0 16.691-16.695 16.691-43.804 0-60.5l-405.35-405.301c-8.013-8.013-18.867-12.544-30.203-12.549-11.336 0-22.231 4.531-30.249 12.549l-183.1 183.101-289.75-289.802c-16.695-16.691-43.804-16.691-60.5 0-16.696 16.696-16.696 43.807 0 60.503l320 319.999c8.018 8.018 18.912 12.5 30.25 12.5s22.233-4.482 30.25-12.5l183.048-183.1 375.153 375.1zM938.577 448.002v213.25h-213.248c-23.613 0-42.752 19.139-42.752 42.75s19.139 42.75 42.752 42.75h256c23.613 0 42.752-19.139 42.752-42.75v-256c0-23.613-19.139-42.752-42.752-42.752s-42.752 19.139-42.752 42.752z" />
<glyph unicode="&#xe90b;" glyph-name="x-octagon" d="M688.624 917.333c11.315 0 22.17-4.503 30.17-12.5l250.039-250.042c8-8.001 12.501-18.854 12.501-30.167v-353.248c0-11.315-4.501-22.17-12.501-30.17l-250.039-250.039c-8-8-18.854-12.501-30.17-12.501h-353.248c-11.312 0-22.166 4.501-30.167 12.501l-250.042 250.039c-7.997 8-12.5 18.854-12.5 30.17v353.248l0.208 4.25c0.973 9.757 5.299 18.921 12.292 25.917l250.042 250.042 3.125 2.833c7.591 6.217 17.143 9.667 27.042 9.667h353.248zM128.001 606.959v-317.917l225.041-225.041h317.917l225.041 225.041v317.917l-225.041 225.041h-317.917l-225.041-225.041zM609.831 606.164c16.661 16.663 43.669 16.663 60.335 0 16.661-16.662 16.661-43.671 0-60.333l-256.002-256.001c-16.663-16.661-43.671-16.661-60.334 0s-16.662 43.674 0 60.335l256 255.999zM353.831 606.164c16.663 16.663 43.671 16.663 60.334 0l256.002-255.999 2.914-3.251c13.67-16.759 12.706-41.463-2.914-57.084-15.625-15.62-40.329-16.585-57.084-2.914l-3.251 2.914-256 256.001c-16.662 16.663-16.662 43.671 0 60.333z" />
<glyph unicode="&#xe90c;" glyph-name="activity" d="M384 874.668c18.361 0 34.647-11.751 40.458-29.167l215.542-646.627 87.543 262.626 2.624 6.251c7.262 13.922 21.764 22.916 37.833 22.916h170.667c23.565 0 42.667-19.102 42.667-42.667s-19.102-42.667-42.667-42.667h-139.917l-118.293-354.833c-5.811-17.417-22.097-29.167-40.457-29.167s-34.645 11.75-40.457 29.167l-215.543 646.625-87.542-262.625c-5.811-17.417-22.097-29.167-40.458-29.167h-170.667c-23.564 0-42.667 19.102-42.667 42.667s19.103 42.667 42.667 42.667h139.917l118.292 354.833 2.625 6.25c7.262 13.923 21.763 22.917 37.833 22.917z" />
<glyph unicode="&#xe90d;" glyph-name="arrow-down-left" d="M328.919 204.432c-16.696-16.696-43.804-16.696-60.5 0-16.682 16.691-16.676 43.756 0 60.447l60.5-60.447zM695.122 691.581c16.691 16.676 43.756 16.681 60.447 0 16.696-16.696 16.696-43.804 0-60.5l-426.649-426.648-60.5 60.447 426.702 426.701zM255.935 661.327c0 23.611 19.139 42.75 42.75 42.75s42.75-19.139 42.75-42.75v-383.899h383.9c23.608 0 42.742-19.149 42.752-42.752 0-23.608-19.139-42.747-42.752-42.747h-426.65c-23.611 0-42.75 19.139-42.75 42.747v426.651z" />
<glyph unicode="&#xe90e;" glyph-name="arrow-up-right" d="M328.909 204.436c-16.696-16.696-43.804-16.696-60.5 0-16.682 16.691-16.676 43.756 0 60.447l60.5-60.447zM695.112 691.585c16.691 16.676 43.756 16.681 60.447 0 16.696-16.696 16.696-43.804 0-60.5l-426.649-426.648-60.5 60.447 426.702 426.701zM682.573 234.68v383.901h-383.898c-23.611 0-42.75 19.139-42.75 42.75s19.139 42.75 42.75 42.75h426.65c23.613 0 42.752-19.139 42.752-42.75v-426.651c0-23.608-19.139-42.747-42.752-42.747-23.603 0.005-42.752 19.144-42.752 42.747z" />
<glyph unicode="&#xe90f;" glyph-name="chevron-left" d="M662.624 726.624c-12.497 12.497-32.753 12.497-45.25 0l-255.997-256c-12.499-12.497-12.499-32.753 0-45.25l255.997-256.001c12.497-12.493 32.753-12.493 45.25 0 12.497 12.499 12.497 32.755 0 45.254l-233.375 233.372 233.375 233.375c12.497 12.497 12.497 32.753 0 45.25z" />
<glyph unicode="&#xe910;" glyph-name="chevron-right" d="M361.376 726.624c12.497 12.497 32.753 12.497 45.25 0l255.997-256c12.499-12.497 12.499-32.753 0-45.25l-255.997-256.001c-12.497-12.493-32.753-12.493-45.25 0-12.497 12.499-12.497 32.755 0 45.254l233.375 233.372-233.375 233.375c-12.497 12.497-12.497 32.753 0 45.25z" />
<glyph unicode="&#xe911;" glyph-name="coins" d="M853.1 747.325c-0.148 0.476-0.507 1.424-1.352 2.8-1.807 2.939-5.499 7.365-12.396 12.8-14.080 11.091-37.105 22.95-69.35 33.7-64.067 21.353-155.284 35.3-258.002 35.3s-193.936-13.947-258-35.3c-32.249-10.749-55.272-22.608-69.35-33.7-6.897-5.435-10.591-9.861-12.4-12.8-0.845-1.376-1.202-2.324-1.35-2.8-0.132-0.434-0.15-0.65-0.15-0.65s0.018-0.216 0.15-0.65c0.148-0.476 0.505-1.424 1.35-2.8 1.809-2.939 5.503-7.365 12.4-12.8 14.077-11.092 37.101-22.95 69.35-33.7 64.063-21.353 155.282-35.3 258-35.3s193.935 13.947 258.002 35.3c32.246 10.749 55.27 22.608 69.35 33.7 6.897 5.435 10.588 9.861 12.396 12.8 0.845 1.376 1.203 2.324 1.352 2.8 0.133 0.434 0.148 0.65 0.148 0.65s-0.015 0.216-0.148 0.65zM938.752 746.675c0-36.382-22.149-64.246-46.454-83.4-24.781-19.532-58.015-35.239-95.247-47.65-74.916-24.972-175.698-39.7-285.051-39.7-109.355 0-210.134 14.728-285.050 39.7-37.232 12.411-70.466 28.118-95.25 47.65-24.301 19.153-46.45 47.017-46.45 83.4s22.15 64.247 46.45 83.4c24.784 19.532 58.018 35.239 95.25 47.65 74.916 24.972 175.695 39.7 285.050 39.7 109.353 0 210.135-14.728 285.051-39.7 37.233-12.411 70.467-28.118 95.247-47.65 24.305-19.153 46.454-47.017 46.454-83.4zM85.25 448.006c0 23.611 19.139 42.75 42.75 42.75s42.75-19.139 42.75-42.75c0 0 0.011-0.287 0.15-0.748 0.151-0.497 0.499-1.454 1.35-2.852 1.791-2.939 5.461-7.332 12.3-12.749 13.959-11.064 36.844-22.917 69-33.654 63.871-21.32 155.069-35.246 258.45-35.246 103.378 0 194.58 13.926 258.452 35.246 32.154 10.737 55.040 22.589 68.997 33.654 6.84 5.417 10.506 9.81 12.298 12.749 0.855 1.398 1.203 2.355 1.352 2.852 0.138 0.461 0.148 0.748 0.148 0.748 0 23.611 19.139 42.75 42.752 42.75s42.752-19.139 42.752-42.75c0-36.275-21.919-64.159-46.203-83.4-24.704-19.574-57.83-35.292-95.002-47.698-74.793-24.97-175.601-39.654-285.548-39.654s-210.755 14.684-285.55 39.654c-37.167 12.406-70.296 28.124-95 47.698-24.282 19.241-46.2 47.124-46.2 83.4zM85.25 149.326v597.349c0 23.611 19.139 42.749 42.75 42.749s42.75-19.138 42.75-42.749v-597.349c0 0 0.020-0.323 0.15-0.753 0.153-0.497 0.516-1.423 1.35-2.801 1.791-2.939 5.451-7.368 12.3-12.8 13.959-11.059 36.844-22.912 69-33.649 63.871-21.32 155.072-35.251 258.45-35.251s194.58 13.932 258.452 35.251c32.154 10.737 55.040 22.589 68.997 33.649 6.851 5.432 10.511 9.861 12.298 12.8 0.835 1.377 1.198 2.304 1.352 2.801 0.128 0.43 0.148 0.753 0.148 0.753v597.349c0 23.611 19.139 42.749 42.752 42.749s42.752-19.138 42.752-42.749v-597.349c-0.010-36.265-21.929-64.113-46.203-83.348-24.704-19.579-57.825-35.343-95.002-47.754-74.793-24.97-175.601-39.649-285.548-39.649s-210.755 14.679-285.55 39.649c-37.173 12.411-70.294 28.175-95 47.754-24.274 19.236-46.193 47.084-46.2 83.348z" />
<glyph unicode="&#xe912;" glyph-name="card" d="M930.12 703.981c0 18.846-15.258 34.141-34.099 34.15h-768.002c-18.851 0-34.15-15.299-34.15-34.15v-512.002l0.7-6.851c3.178-15.555 16.951-27.249 33.45-27.249h768.002c18.836 0.010 34.089 15.263 34.099 34.099v512.002zM1032.52 191.98c-0.010-75.392-61.107-136.489-136.499-136.499h-768.002c-70.69 0-128.855 53.709-135.85 122.552l-0.7 13.947v512.002c0 75.405 61.145 136.55 136.55 136.55h768.002c75.397-0.009 136.499-61.151 136.499-136.55v-512.002zM981.32 584.531c28.278 0 51.2-22.923 51.2-51.2s-22.922-51.2-51.2-51.2h-938.651c-28.277 0-51.2 22.923-51.2 51.2s22.923 51.2 51.2 51.2h938.651z" />
<glyph unicode="&#xe913;" glyph-name="minus-circle" d="M682.674 499.205l5.202-0.25c25.83-2.612 45.998-24.433 45.998-50.95s-20.168-48.338-45.998-50.949l-5.202-0.251h-341.348c-28.277 0-51.2 22.922-51.2 51.2s22.923 51.2 51.2 51.2h341.348zM887.474 448.024c-0.005 207.356-168.136 375.45-375.498 375.45-207.351-0.008-375.441-168.098-375.45-375.45 0-207.358 168.094-375.494 375.45-375.499 207.367 0 375.498 168.136 375.498 375.499zM989.874 448.024c0-263.919-213.98-477.899-477.898-477.899-263.911 0.005-477.85 213.985-477.85 477.899 0.009 263.905 213.945 477.841 477.85 477.85 263.912 0 477.893-213.939 477.898-477.85z" />
<glyph unicode="&#xe914;" glyph-name="up" d="M268.833 347.598l161.791 291.223c35.468 63.843 127.284 63.843 162.752 0l161.792-291.224c34.47-62.050-10.4-138.3-81.376-138.3h-323.583c-70.98 0-115.847 76.25-81.376 138.3z" />
<glyph unicode="&#xe915;" glyph-name="down" d="M268.833 548.402l161.791-291.223c35.468-63.843 127.284-63.843 162.752 0l161.792 291.224c34.47 62.050-10.4 138.3-81.376 138.3h-323.583c-70.98 0-115.847-76.25-81.376-138.3z" />
<glyph unicode="&#xe916;" glyph-name="chart" d="M324.227 878.362c21.64 9.443 46.856-0.46 56.3-22.1s-0.459-46.857-22.1-56.3c-57.468-25.082-107.928-63.868-146.95-112.95-39.016-49.078-65.419-106.962-76.9-168.6-11.48-61.651-7.692-125.207 11.050-185.050 18.741-59.837 51.862-114.166 96.45-158.249 44.591-44.088 99.303-76.595 159.35-94.653 60.054-18.053 123.638-21.13 185.149-8.95 61.517 12.186 119.112 39.265 167.752 78.853 48.625 39.578 86.825 90.45 111.247 148.198l1.9 3.948c10.409 19.021 33.756 27.428 54.154 18.801 21.74-9.196 31.892-34.304 22.697-56.049l-5.801-13.097c-29.952-65.208-74.445-122.778-130.196-168.151-59.474-48.404-129.935-81.505-205.153-96.399-75.208-14.894-152.926-11.131-226.349 10.947-73.43 22.083-140.322 61.844-194.85 115.753-54.524 53.903-95.034 120.33-117.95 193.5s-27.537 150.866-13.5 226.248c14.040 75.374 46.335 146.186 94.050 206.2 47.714 60.006 109.386 107.436 179.65 138.1zM512.009 917.326c61.645 0 122.696-12.16 179.651-35.75 56.945-23.59 108.713-58.165 152.3-101.75 43.581-43.586 78.162-95.355 101.75-152.3 23.583-56.941 35.697-117.969 35.702-179.6 0-23.612-19.139-42.75-42.752-42.75h-426.65c-23.611 0-42.75 19.139-42.75 42.75v426.65c0 11.339 4.483 22.233 12.5 30.25s18.911 12.5 30.25 12.5zM554.761 490.676h338.647c-4.004 35.727-12.887 70.804-26.701 104.15-19.292 46.579-47.601 88.9-83.246 124.55-35.651 35.646-77.978 63.908-124.554 83.2-33.352 13.815-68.413 22.795-104.146 26.8v-338.7z" />
<glyph unicode="&#xe917;" glyph-name="message" d="M554.687 874.562l2.312-0.063c99.391-5.484 193.299-47.424 263.686-117.812 70.394-70.388 112.333-164.294 117.818-263.688 0.038-0.77 0.058-1.541 0.058-2.312v-21.25l-0.621-23.562c-3.091-54.813-17.517-108.458-42.317-157.626l0.064-0.064c-33.638-67.302-85.382-123.923-149.376-163.501-63.981-39.565-137.709-60.525-212.936-60.557l-0.062 0.058c-56.879-0.128-112.989 11.942-164.75 35.187l-227.125-75.75c-15.288-5.088-32.168-1.139-43.563 10.253s-15.338 28.275-10.25 43.565l75.688 227.187c-23.24 51.775-35.335 107.917-35.188 164.81 0.045 75.206 21.009 148.91 60.563 212.875 37.1 59.991 89.182 109.181 151 142.813l12.5 6.563c56.163 28.332 118.22 42.956 181.125 42.812v0.063h21.375zM533.249 789.436c-49.611 0.129-98.592-11.445-142.875-33.812l-0.125-0.125c-53.165-26.572-97.926-67.387-129.187-117.938-31.26-50.549-47.789-108.816-47.812-168.25v-0.063c-0.129-49.611 11.445-98.592 33.812-142.875 5.109-10.125 5.959-21.863 2.375-32.628l-54.188-162.432 162.5 54.125 8.188 1.875c8.323 1.037 16.838-0.416 24.438-4.25 44.283-22.368 93.264-33.946 142.875-33.818h0.063c59.434 0.026 117.702 16.557 168.25 47.814 50.554 31.264 91.366 76.019 117.939 129.188l0.122 0.125c22.368 44.283 33.946 93.264 33.811 142.875v19.937c-4.518 78.15-37.568 151.946-92.934 207.313-55.379 55.382-129.202 88.428-207.375 92.938h-19.875z" />
<glyph unicode="&#xe918;" glyph-name="plus-circle" d="M895.925 448.025c-0.010 212.023-171.924 383.9-383.949 383.9-212.017-0.009-383.891-171.883-383.9-383.9 0-212.026 171.877-383.941 383.9-383.951 212.030 0 383.949 171.919 383.949 383.951zM981.424 448.025c0-259.253-210.196-469.45-469.448-469.45-259.245 0.010-469.4 210.202-469.4 469.45 0.009 259.24 210.16 469.391 469.4 469.4 259.247 0 469.443-210.155 469.448-469.4zM469.242 277.328v341.348c0 23.611 19.139 42.75 42.75 42.75 23.613 0 42.752-19.139 42.752-42.75v-341.348c-0.010-23.603-19.149-42.752-42.752-42.752-23.606 0-42.741 19.149-42.75 42.752zM682.677 490.763l4.347-0.2c21.565-2.186 38.4-20.412 38.4-42.55s-16.835-40.366-38.4-42.552l-4.347-0.2h-341.351c-23.611 0-42.75 19.139-42.75 42.752 0 23.611 19.139 42.75 42.75 42.75h341.351z" />
<glyph unicode="&#xe919;" glyph-name="x" d="M737.752 734.249c16.696 16.696 43.802 16.696 60.498 0s16.696-43.804 0-60.5l-511.999-512.002c-16.696-16.691-43.804-16.691-60.5 0-16.696 16.696-16.696 43.807 0 60.503l512.001 511.999zM225.752 734.248c15.657 15.657 40.458 16.611 57.25 2.9l3.25-2.9 514.901-515.249c13.711-16.794 12.759-41.595-2.903-57.252-15.657-15.657-40.458-16.609-57.247-2.898l-3.251 2.898-514.9 515.251c-13.71 16.792-12.758 41.592 2.9 57.25z" />
</font>
</defs>
</svg>
